<?xml version="1.0" encoding="UTF-8" standalone="no"?>
<svg
   xmlns:dc="http://purl.org/dc/elements/1.1/"
   xmlns:cc="http://creativecommons.org/ns#"
   xmlns:rdf="http://www.w3.org/1999/02/22-rdf-syntax-ns#"
   xmlns:svg="http://www.w3.org/2000/svg"
   xmlns="http://www.w3.org/2000/svg"
   xmlns:sodipodi="http://sodipodi.sourceforge.net/DTD/sodipodi-0.dtd"
   xmlns:inkscape="http://www.inkscape.org/namespaces/inkscape"
   width="224.70312"
   height="185.30225"
   viewBox="0 0 179.7625 148.2418"
   version="1.1"
   id="svg2"
   inkscape:version="0.48.2 r9819"
   sodipodi:docname="20141013034704246.svg">
  <metadata
     id="metadata18">
    <rdf:RDF>
      <cc:Work
         rdf:about="">
        <dc:format>image/svg+xml</dc:format>
        <dc:type
           rdf:resource="http://purl.org/dc/dcmitype/StillImage" />
      </cc:Work>
    </rdf:RDF>
  </metadata>
  <defs
     id="defs16" />
  <sodipodi:namedview
     pagecolor="#ffffff"
     bordercolor="#666666"
     borderopacity="1"
     objecttolerance="10"
     gridtolerance="10"
     guidetolerance="10"
     inkscape:pageopacity="0"
     inkscape:pageshadow="2"
     inkscape:window-width="1920"
     inkscape:window-height="1017"
     id="namedview14"
     showgrid="false"
     fit-margin-top="0"
     fit-margin-left="0"
     fit-margin-right="0"
     fit-margin-bottom="0"
     inkscape:zoom="1"
     inkscape:cx="392.50313"
     inkscape:cy="81.366081"
     inkscape:window-x="-8"
     inkscape:window-y="-8"
     inkscape:window-maximized="0"
     inkscape:current-layer="svg2" />
  <g
     id="#ffffffff"
     transform="translate(-184.9975,-166.85107)" />
  <g
     id="#98233dff"
     transform="translate(-184.9975,-166.85107)">
    <path
       d="m 239.69,173.78 c 30.1,-12.61 67.22,-7.93 92.23,13.4 9.26,7.79 16.63,17.84 21.17,29.07 3.88,-0.01 7.77,0 11.65,0 0.02,5.75 0.01,11.49 0.01,17.24 -15.75,0.02 -31.5,0 -47.25,0.01 -0.05,-8.68 0.09,-17.37 -0.05,-26.05 -0.06,-5.64 -3.45,-11.23 -8.76,-13.36 -9.15,-4.39 -20.46,3.94 -19.68,13.87 -0.03,8.51 0,17.02 0,25.54 -9.51,0 -19.01,0 -28.51,0 0,-8.85 0.01,-17.69 0.01,-26.53 0.19,-7.61 -6.97,-14.44 -14.55,-14 -7.32,0.07 -13.7,6.69 -13.7,13.97 -0.03,8.85 0.01,17.7 -0.01,26.55 -15.75,0.02 -31.5,0 -47.24,0.01 -0.01,-5.75 -0.02,-11.51 0,-17.26 3.84,0 7.67,0 11.51,0.03 7.77,-19.33 24.03,-34.61 43.17,-42.49 z"
       id="path6"
       inkscape:connector-curvature="0"
       style="fill:#98233d" />
    <path
       d="m 185,248.5 c 15.75,0 31.5,0 47.25,0 0.02,8.83 -0.02,17.66 0.01,26.49 0.01,5.55 3.64,10.87 8.8,12.92 8.33,3.98 19.04,-2.79 19.41,-11.88 0.09,-9.18 -0.01,-18.36 0.03,-27.53 9.5,0 19,0 28.5,0 0.05,8.88 -0.1,17.77 0.06,26.64 0.14,5.8 4.11,11.29 9.64,13.11 6.02,2.26 13.24,-0.54 16.52,-5.99 1.96,-3.03 2.31,-6.74 2.3,-10.27 -0.03,-7.83 -0.02,-15.66 -0.02,-23.49 15.75,0.01 31.5,-0.01 47.26,0.01 -0.02,5.74 0,11.49 -0.01,17.24 -3.91,0 -7.81,0 -11.71,0.01 -5.86,14.66 -16.65,27.12 -29.96,35.53 -31,20.01 -74.62,18.19 -103.49,-4.98 -10.08,-8 -18.21,-18.54 -22.96,-30.54 -3.87,-0.03 -7.74,-0.02 -11.62,-0.01 C 184.99,260.01 185,254.25 185,248.5 z"
       id="path8"
       inkscape:connector-curvature="0"
       style="fill:#98233d" />
  </g>
  <g
     id="#413d3eff"
     transform="translate(-184.9975,-166.85107)" />
  <g
     id="#403d3eff"
     transform="translate(-184.9975,-166.85107)" />
  <g
     id="#413d3cff"
     transform="translate(-184.9975,-166.85107)" />
  <g
     id="#002551ff"
     transform="translate(-184.9975,-166.85107)" />
</svg>
